<?xml version="1.0" encoding="utf-8"?>
<!-- Generator: Adobe Illustrator 24.1.3, SVG Export Plug-In . SVG Version: 6.00 Build 0)  -->
<svg version="1.1" xmlns="http://www.w3.org/2000/svg" xmlns:xlink="http://www.w3.org/1999/xlink" x="0px" y="0px"
	 viewBox="0 0 500 500" style="enable-background:new 0 0 500 500;" xml:space="preserve">
<style type="text/css">
	.st0{fill:#E6E6E6;}
	.st1{fill:#F0F0F0;}
	.st2{fill:#F5F5F5;}
	.st3{fill:#FAFAFA;}
	.st4{fill:#FFFFFF;}
	.st5{opacity:0.6;fill:#E0E0E0;}
	.st6{display:none;}
	.st7{display:inline;}
	.st8{fill:#407BFF;}
	.st9{opacity:0.9;fill:#FFFFFF;}
	.st10{fill:#263238;}
	.st11{fill:#FFB573;}
	.st12{opacity:0.2;}
	.st13{opacity:0.4;}
	.st14{opacity:0.3;fill:#407BFF;}
	.st15{opacity:0.5;}
	.st16{fill:#ED893E;}
	.st17{opacity:0.4;fill:#FFFFFF;}
	.st18{opacity:0.7;fill:#407BFF;}
	.st19{opacity:0.4;fill:#263238;}
	.st20{opacity:0.2;fill:#FFFFFF;}
</style>
<g id="Background_Complete">
	<g>
		<g>
			
				<rect x="0.3" y="288.5" transform="matrix(-1 -1.224647e-16 1.224647e-16 -1 35.5959 670.0742)" class="st0" width="35" height="93.2"/>
			<polygon class="st1" points="7,381.6 0.3,381.6 0.3,357 13.9,357 			"/>
			
				<rect x="199.8" y="288.5" transform="matrix(-1 -1.224647e-16 1.224647e-16 -1 434.4688 670.0742)" class="st0" width="35" height="93.2"/>
			
				<rect x="0.3" y="288.5" transform="matrix(-1 -1.224647e-16 1.224647e-16 -1 205.8725 663.3543)" class="st1" width="205.2" height="86.4"/>
			<polygon class="st1" points="198.9,381.6 205.6,381.6 205.6,357 192,357 			"/>
			<g>
				<path class="st0" d="M199.4,364.5h-62.1V298h62.1V364.5z M138.5,363.2h59.6v-63.9h-59.6V363.2z"/>
			</g>
			<g>
				<path class="st0" d="M134,364.5H71.9V298H134V364.5z M73.2,363.2h59.6v-63.9H73.2V363.2z"/>
			</g>
			<g>
				<path class="st0" d="M68.6,364.5H6.5V298h62.1V364.5z M7.8,363.2h59.6v-63.9H7.8V363.2z"/>
			</g>
		</g>
		<g>
			<g>
				<g>
					<g>
						
							<rect x="278.6" y="12.3" transform="matrix(-1 -1.224647e-16 1.224647e-16 -1 763.2576 200.0805)" class="st0" width="206" height="175.4"/>
						
							<rect x="274" y="12.3" transform="matrix(-1 -1.224647e-16 1.224647e-16 -1 756.608 200.0805)" class="st2" width="208.6" height="175.4"/>
						
							<rect x="299" y="4.1" transform="matrix(-1.836970e-16 1 -1 -1.836970e-16 478.3444 -278.2638)" class="st3" width="158.6" height="191.9"/>
						<polygon class="st4" points="450.7,179.3 375.2,20.7 349.5,20.7 425.1,179.3 						"/>
						<polygon class="st4" points="417.8,179.3 342.2,20.7 324.6,20.7 400.1,179.3 						"/>
						
							<rect x="269.3" y="95.1" transform="matrix(-1.836970e-16 1 -1 -1.836970e-16 448.6803 -248.5997)" class="st0" width="158.6" height="9.9"/>
						
							<rect x="335.3" y="95.1" transform="matrix(-1.836970e-16 1 -1 -1.836970e-16 514.6579 -314.5773)" class="st0" width="158.6" height="9.9"/>
						
							<rect x="260.4" y="93.3" transform="matrix(-1.836970e-16 1 -1 -1.836970e-16 445.121 -245.9583)" class="st2" width="170.2" height="12.5"/>
						
							<rect x="326.4" y="93.3" transform="matrix(-1.836970e-16 1 -1 -1.836970e-16 511.0985 -311.9359)" class="st2" width="170.2" height="12.5"/>
						
							<rect x="203.5" y="99.6" transform="matrix(-1.836970e-16 1 -1 -1.836970e-16 382.8132 -182.7326)" class="st0" width="158.6" height="0.9"/>
					</g>
				</g>
			</g>
			<g>
				<g>
					<path class="st0" d="M270.5,1.5h223.1c0.6,0,1.1,0.5,1.1,1.1l0,0c0,0.6-0.5,1.1-1.1,1.1H270.5c-0.6,0-1.1-0.5-1.1-1.1l0,0
						C269.4,2,269.9,1.5,270.5,1.5z"/>
					<path class="st0" d="M484.6,8.6L484.6,8.6c0.8,0,1.4-0.7,1.4-1.4V4c0-0.8-0.7-1.4-1.4-1.4l0,0c-0.8,0-1.4,0.7-1.4,1.4v3.1
						C483.2,7.9,483.8,8.6,484.6,8.6z"/>
					<path class="st0" d="M286.7,8.6L286.7,8.6c0.8,0,1.4-0.7,1.4-1.4V4c0-0.8-0.7-1.4-1.4-1.4l0,0c-0.8,0-1.4,0.7-1.4,1.4v3.1
						C285.3,7.9,285.9,8.6,286.7,8.6z"/>
				</g>
				
					<rect x="270.9" y="2.6" transform="matrix(-1 -1.224647e-16 1.224647e-16 -1 750.1547 92.2103)" class="st5" width="208.4" height="87.1"/>
			</g>
		</g>
		<g>
			<path class="st3" d="M76.5,288.5H44.8c-2.4,0-4.4-2-4.4-4.4v-52.9c0-2.4,2-4.4,4.4-4.4h31.6c2.4,0,4.4,2,4.4,4.4v52.9
				C80.8,286.5,78.9,288.5,76.5,288.5z"/>
			<path class="st0" d="M79.4,227.6H41.9c-0.8,0-1.5-0.7-1.5-1.5v-2.4c0-0.8,0.7-1.5,1.5-1.5h37.4c0.8,0,1.5,0.7,1.5,1.5v2.4
				C80.8,226.9,80.2,227.6,79.4,227.6z"/>
		</g>
		<g>
			<path class="st1" d="M186.8,288.5h-23c-1.8,0-3.2-1.4-3.2-3.2v-38.4c0-1.8,1.4-3.2,3.2-3.2h23c1.8,0,3.2,1.4,3.2,3.2v38.4
				C190,287,188.6,288.5,186.8,288.5z"/>
			<path class="st0" d="M188.9,244.3h-27.2c-0.6,0-1.1-0.5-1.1-1.1v-1.7c0-0.6,0.5-1.1,1.1-1.1h27.2c0.6,0,1.1,0.5,1.1,1.1v1.7
				C190,243.8,189.5,244.3,188.9,244.3z"/>
		</g>
		<g>
			<path class="st1" d="M120.5,288.5H77c-3.3,0-6-2.7-6-6v-23.9c0-3.3,2.7-6,6-6h43.5c3.3,0,6,2.7,6,6v23.9
				C126.5,285.8,123.8,288.5,120.5,288.5z"/>
			<path class="st2" d="M124.5,253.5H73c-1.1,0-2-0.9-2-2v-3.2c0-1.1,0.9-2,2-2h51.5c1.1,0,2,0.9,2,2v3.2
				C126.5,252.6,125.6,253.5,124.5,253.5z"/>
		</g>
		<g>
			
				<rect x="292.8" y="275.3" transform="matrix(-1 -1.224647e-16 1.224647e-16 -1 591.9792 656.9551)" class="st0" width="6.5" height="106.3"/>
			<g>
				<g>
					<rect x="444.8" y="254.7" class="st0" width="35.1" height="20.7"/>
					
						<rect x="270.3" y="254.7" transform="matrix(-1 -1.224647e-16 1.224647e-16 -1 715.0698 529.9843)" class="st2" width="174.4" height="20.7"/>
				</g>
			</g>
			<g>
				<g>
					<rect x="444.8" y="309.9" class="st0" width="35.1" height="20.7"/>
					
						<rect x="270.3" y="309.9" transform="matrix(-1 -1.224647e-16 1.224647e-16 -1 715.0698 640.4506)" class="st2" width="174.4" height="20.7"/>
				</g>
			</g>
			
				<rect x="467.2" y="275.3" transform="matrix(-1 -1.224647e-16 1.224647e-16 -1 940.8494 656.9551)" class="st0" width="6.5" height="106.3"/>
			
				<rect x="438.3" y="275.3" transform="matrix(-1 -1.224647e-16 1.224647e-16 -1 883.0276 656.9551)" class="st2" width="6.5" height="106.3"/>
			
				<rect x="270.3" y="275.3" transform="matrix(-1 -1.224647e-16 1.224647e-16 -1 547.1119 656.9551)" class="st2" width="6.5" height="106.3"/>
		</g>
		<g>
			<g>
				
					<rect x="19.2" y="21.1" transform="matrix(-1 -1.224647e-16 1.224647e-16 -1 120.9131 134.7802)" class="st1" width="82.5" height="92.5"/>
				
					<rect x="13.4" y="21.1" transform="matrix(-1 -1.224647e-16 1.224647e-16 -1 113.8145 134.7802)" class="st2" width="87" height="92.5"/>
				
					<rect x="17.9" y="31.2" transform="matrix(6.123234e-17 -1 1 6.123234e-17 -10.4827 124.2973)" class="st4" width="77.9" height="72.4"/>
				<g>
					<path class="st1" d="M44.9,44.9c-5.7,0-11.1,3.3-13.5,8.9c-3.1,7.4,0.4,15.9,7.8,19l53.9,22.7V64L50.5,46
						C48.7,45.3,46.8,44.9,44.9,44.9z"/>
				</g>
			</g>
		</g>
		<g>
			<g>
				
					<rect x="128.7" y="67.4" transform="matrix(-1 -1.224647e-16 1.224647e-16 -1 339.9319 227.2939)" class="st1" width="82.5" height="92.5"/>
				
					<rect x="122.9" y="67.4" transform="matrix(-1 -1.224647e-16 1.224647e-16 -1 332.8333 227.2939)" class="st2" width="87" height="92.5"/>
				
					<rect x="127.5" y="77.4" transform="matrix(6.123234e-17 -1 1 6.123234e-17 52.7698 280.0635)" class="st4" width="77.9" height="72.4"/>
				<path class="st1" d="M174.6,104.8l-44.4-18.7v32.3l32.8,13.8c7.6,3.2,16.3-0.4,19.5-8C185.7,116.8,182.1,108,174.6,104.8z"/>
			</g>
		</g>
	</g>
</g>
<g id="Background_Simple" class="st6">
	<g class="st7">
		<path class="st8" d="M400,135.3c-9.9-34.4-53.5-55.3-91.2-48.1c-32.9,6.3-44.9,33.1-81.9,31.5c-34.5-1.4-65.6-13.2-95.9,14.1
			c-23.8,21.4-21.9,51.6-16.7,81.4c14.4,81.5,63.1,107.8,141.4,83.9c37.4-11.4,82.2-30.1,112-55.9
			C403.3,211.3,412.3,177.9,400,135.3z"/>
		<path class="st9" d="M400,135.3c-9.9-34.4-53.5-55.3-91.2-48.1c-32.9,6.3-44.9,33.1-81.9,31.5c-34.5-1.4-65.6-13.2-95.9,14.1
			c-23.8,21.4-21.9,51.6-16.7,81.4c14.4,81.5,63.1,107.8,141.4,83.9c37.4-11.4,82.2-30.1,112-55.9
			C403.3,211.3,412.3,177.9,400,135.3z"/>
	</g>
</g>
<g id="Shadow_1_">
	<ellipse id="_x3C_Path_x3E__2_" class="st2" cx="251.1" cy="425.1" rx="249.3" ry="14.6"/>
</g>
<g id="Character_1_">
	<g>
		<g>
			<path class="st10" d="M179.1,39.3c1.2-5.4,14.7-10.6,26.3-2.6c11.6,7.9,14.6,21.5,10.9,32.5c-6.2,18.4,26.2,17.7,33.7,48.7
				c5.9,24.5,0.4,59-32.6,57.2c-50.5-2.9-46.1-52.2-48.3-78.2S139.3,41.9,179.1,39.3z"/>
			<path class="st11" d="M162.5,108.5c-0.2,3.8-0.7,7.2-1.1,10.8c-0.5,3.5-1.2,7-1.9,10.5c-0.8,3.5-1.6,7-2.7,10.4
				c-1,3.5-2.3,6.9-3.7,10.3l-1.1,2.5c-0.2,0.4-0.5,0.9-0.7,1.4c-0.3,0.5-0.5,0.9-0.8,1.4c-1.1,1.8-2.3,3.3-3.5,4.7
				c-2.4,2.9-5,5.4-7.7,7.7c-5.4,4.7-10.9,9-16.9,12.8l-3.4-4.4c2.4-2.3,4.9-4.8,7.3-7.2c2.4-2.4,4.7-4.9,7-7.4
				c2.2-2.5,4.4-5,6.2-7.6c0.9-1.3,1.8-2.6,2.4-3.8c0.1-0.3,0.3-0.6,0.4-0.9c0.1-0.3,0.2-0.5,0.4-0.9l0.9-2.3
				c2.2-6.1,3.8-12.5,5.1-19.1c0.7-3.3,1.1-6.6,1.6-9.9c0.5-3.3,0.9-6.7,1.1-9.9L162.5,108.5z"/>
			<path class="st8" d="M154.8,95c-4.6,1.2-7.8,20-7.8,20l17.5,11.9c0,0,7.2-22.3,3.7-27.3C164.5,94.3,161.4,93.3,154.8,95z"/>
			<polygon class="st12" points="155.2,99.2 151.7,118.2 158.7,123 			"/>
			<path class="st11" d="M120.8,175.1l-11.8,1.9l6.7,7.4c0,0,6.9-1.6,8.2-6L120.8,175.1z"/>
			<g>
				<polygon class="st11" points="103.5,178.4 110.2,185.7 115.7,184.4 109,176.9 				"/>
			</g>
			<polygon class="st11" points="179.5,411.5 168.4,411.5 167.6,385.8 178.7,385.8 			"/>
			<polygon class="st11" points="256.1,378.8 245.8,383 232.8,360.6 243.1,356.4 			"/>
			<path class="st10" d="M243.9,381.4l10.7-6.4c0.4-0.2,0.9-0.1,1.1,0.2l6.3,7.7c0.6,0.8,0.4,2.1-0.5,2.6c-3.8,2.2-5.7,3-10.4,5.8
				c-2.9,1.7-9.7,7.6-13.7,10c-3.9,2.3-6.6-1.5-5.1-2.8c6.5-6,9.1-12,10.4-15.7C242.9,382.3,243.3,381.8,243.9,381.4z"/>
			<path class="st10" d="M168,410.2h12.4c0.5,0,0.8,0.3,0.9,0.8l1.4,9.9c0.1,1-0.7,2-1.8,2c-4.3-0.1-6.4-0.3-11.9-0.3
				c-3.4,0-10.3,0.4-15,0.4c-4.5,0-4.9-4.6-3-5c8.7-1.9,12.1-4.4,15-6.9C166.7,410.4,167.3,410.2,168,410.2z"/>
			<g class="st12">
				<polygon points="167.6,385.8 168,399 179.1,399 178.7,385.8 				"/>
				<polygon points="243.1,356.4 232.8,360.6 239.5,372.1 249.8,367.9 				"/>
			</g>
			<path class="st8" d="M154.8,95c0,0-5.3,1.9,5.3,66.9c17.9,0,36.3,0,45,0c-0.8-18.3-0.8-29.6,8-67.2c0,0-9.4-2.1-19.1-2.5
				c-7.6-0.4-13.8-0.6-20.4,0C164.7,93,154.8,95,154.8,95z"/>
			<path class="st12" d="M209.3,109.6c-4.1,1-7.8,5.5-7.4,13.7c0.3,4.9,2.5,8.6,3.8,10.3c0.7-6.3,1.9-13.6,3.8-23L209.3,109.6z"/>
			<path class="st3" d="M175.9,110.2c0,0,5.8,3.6,7.4,9c6.3-4.7,15-17.6,15.3-25.4c0-0.9-0.8-1.7-1.7-1.7c-1.8,0-2.9,0.1-2.9,0.1
				L175.9,110.2z"/>
			<path class="st3" d="M175.9,110.2c0,0-5.8,3.6-7.4,9c-6.8-5-3-21.5,0.9-27c2.8-0.2,4.1,0,4.1,0L175.9,110.2z"/>
			<path class="st11" d="M191.9,69.2c-1.3,6.6-2.6,18.6,2,23c0,0-6.1,11.7-18.1,18c-9.1-7.3-2.4-18-2.4-18c7.3-1.8,7.1-7.2,5.9-12.3
				L191.9,69.2z"/>
			<path class="st12" d="M186.8,73.5l-7.4,6.3c0.3,1.2,0.5,2.4,0.6,3.6c2.8-0.4,7.2-2.8,7.8-5.8C188.1,76.2,187,74.2,186.8,73.5z"/>
			<path class="st11" d="M202.9,58.6c-3,10.6-4.1,15.1-10.7,19.4c-10,6.5-22.3,0.4-22.5-10.8c-0.2-10.1,4.8-25.7,16.3-27.7
				C197.3,37.6,206,48,202.9,58.6z"/>
			<path class="st10" d="M180.1,40.4c0.5,3.6,20.1,15.1,23.8,9.1c3.7-6-1.6-10.5-10-11.6C185.6,36.7,180.1,40.4,180.1,40.4z"/>
			<path class="st10" d="M192.8,42.4c-2.4,3.2,2.7,26,10,23.8c7.3-2.1,7-9.4,1.9-16.2C199.6,43.3,192.8,42.4,192.8,42.4z"/>
			<g>
				<path class="st8" d="M160.1,161.9c0,0-8.7,85.4-8,119.2c0.8,35.2,13.6,115.4,13.6,115.4h15c0,0-2.4-78.1-1-112.7
					c1.4-37.6,13.4-121.9,13.4-121.9H160.1z"/>
				<path class="st13" d="M160.1,161.9c0,0-8.7,85.4-8,119.2c0.8,35.2,13.6,115.4,13.6,115.4h15c0,0-2.4-78.1-1-112.7
					c1.4-37.6,13.4-121.9,13.4-121.9H160.1z"/>
			</g>
			<polygon class="st10" points="182,397 164.4,397 163.1,391.4 182.8,390.7 			"/>
			<path class="st12" d="M179.5,183.2c-11.1,22.2-2.2,62.8,1.7,77.9c2-22.7,5.4-50.4,8-70.7C187.5,178.8,184.6,172.9,179.5,183.2z"
				/>
			<g>
				<path class="st8" d="M171.9,161.9c0,0,10.2,88.8,17.9,117.3c9.1,33.8,46.3,91.6,46.3,91.6l14-5.7c0,0-24-65.7-31-83.6
					c-14.9-38-2.1-94.7-14.1-119.6H171.9z"/>
				<path class="st13" d="M171.9,161.9c0,0,10.2,88.8,17.9,117.3c9.1,33.8,46.3,91.6,46.3,91.6l14-5.7c0,0-24-65.7-31-83.6
					c-14.9-38-2.1-94.7-14.1-119.6H171.9z"/>
			</g>
			<polygon class="st10" points="252,365.1 234.6,372.2 230.6,367.5 250.6,358.3 			"/>
			<g>
				<path class="st10" d="M47.4,49c-31.3,27.7-34.2,75.5-6.5,106.8c27.7,31.3,75.4,34.2,106.7,6.5c31.3-27.7,34.2-75.5,6.5-106.7
					C126.5,24.2,78.7,21.3,47.4,49z M139.7,153.3c-26.3,23.3-66.5,20.8-89.8-5.5C26.6,121.5,29,81.2,55.3,58
					c26.3-23.3,66.5-20.8,89.8,5.5C168.5,89.8,166,130,139.7,153.3z"/>
				<path class="st14" d="M94,163.8c-32.1-2-56.6-29.6-54.7-61.8c2-32.2,29.6-56.6,61.8-54.7c32.2,2,56.6,29.6,54.7,61.8
					C153.8,141.3,126.1,165.8,94,163.8z"/>
				<g class="st15">
					<path class="st3" d="M101.1,47.4c-0.4,0-0.7,0-1.1-0.1L39.4,101c0,0.4-0.1,0.7-0.1,1.1c-0.8,13.1,2.8,25.5,9.6,35.8l86.5-76.6
						C126.1,53.3,114.2,48.2,101.1,47.4z"/>
					<path class="st3" d="M141,66.7L53.7,144c2.9,3.3,6.2,6.3,9.8,8.9l85.2-75.4C146.5,73.7,143.9,70,141,66.7z"/>
				</g>
				<path class="st10" d="M157,162.8l-10,8.8c-1.5,1.3-3.8,1.2-5.2-0.3l0,0c-1.3-1.5-1.2-3.8,0.3-5.2l10-8.8
					c1.5-1.3,3.8-1.2,5.2,0.3l0,0C158.7,159.2,158.5,161.5,157,162.8z"/>
				<path class="st10" d="M153.3,161.2c7.5,6.6,14.7,13.5,21.8,20.5c7.1,7,14,14.1,20.8,21.3c6.8,7.2,13.6,14.5,20.2,21.8
					c6.2,7.7,14.8,13.4,16,25.5c0.4,3.4-2.1,6.4-5.5,6.7c-0.7,0.1-1.4,0-2-0.1c-11.9-2.7-16.5-11.9-23.4-19
					c-6.5-7.5-12.9-15.1-19.2-22.7c-6.3-7.7-12.5-15.4-18.6-23.3c-6.1-7.9-12-15.8-17.7-24.1c-1.6-2.3-1-5.4,1.3-7
					C149.1,159.5,151.7,159.7,153.3,161.2z"/>
			</g>
			<path class="st10" d="M185.2,57.6c-0.2,0.9-0.8,1.5-1.4,1.4c-0.6-0.1-0.9-0.9-0.7-1.8c0.2-0.9,0.8-1.5,1.4-1.4
				S185.4,56.8,185.2,57.6z"/>
			<path class="st10" d="M175.3,55.5c-0.2,0.9-0.8,1.5-1.4,1.4c-0.6-0.1-0.9-0.9-0.7-1.8c0.2-0.9,0.8-1.5,1.4-1.4
				S175.5,54.6,175.3,55.5z"/>
			<path class="st10" d="M174.9,53.7l-2-1.1C172.9,52.7,173.6,54.6,174.9,53.7z"/>
			<path class="st16" d="M178,57.7c0,0-2.3,3.4-4.3,4.9c0.9,1.3,3,1.3,3,1.3L178,57.7z"/>
			<path class="st10" d="M180.7,68.3c-0.4,0-0.9-0.1-1.3-0.2c-0.1,0-0.2-0.2-0.2-0.3c0-0.1,0.2-0.2,0.3-0.2c3.8,0.8,6.2-1.4,6.2-1.5
				c0.1-0.1,0.3-0.1,0.4,0c0.1,0.1,0.1,0.3,0,0.4C186,66.6,184,68.6,180.7,68.3z"/>
			<path class="st11" d="M203.6,69.1c-1.3,1.9-3.3,3-5.1,3.4c-2.8,0.5-3.9-2-2.9-4.5c0.9-2.2,3.4-5.2,6.1-4.6
				C204.3,64,205.1,67,203.6,69.1z"/>
			<path class="st10" d="M189.3,53.8c-0.2,0.1-0.4,0-0.6-0.2c-1.4-2-4.6-1.9-4.6-1.9c-0.3,0-0.5-0.2-0.5-0.5c0-0.3,0.2-0.5,0.5-0.5
				c0.2,0,3.7,0,5.5,2.4c0.2,0.2,0.1,0.6-0.1,0.7C189.4,53.8,189.4,53.8,189.3,53.8z"/>
			<path class="st10" d="M173.3,48.2c-0.2,0-0.3-0.1-0.4-0.3c-0.1-0.3,0-0.6,0.2-0.7c2.6-1.3,4.7-0.1,4.8-0.1
				c0.3,0.1,0.3,0.5,0.2,0.7c-0.1,0.3-0.5,0.3-0.7,0.2c-0.1,0-1.7-0.9-3.8,0.1C173.5,48.2,173.4,48.2,173.3,48.2z"/>
			<path class="st8" d="M239.7,385.7c0,0-0.1,0-0.1,0c-0.5-0.1-0.9-0.4-1.1-1c-0.2-0.4-0.1-0.7,0.1-0.9c0.8-1.2,4.8-1,5.3-1
				c0.1,0,0.2,0.1,0.2,0.2c0,0.1,0,0.2-0.1,0.3C242.9,384.2,241,385.8,239.7,385.7z M243.1,383.3c-1.6,0-3.8,0.2-4.2,0.8
				c-0.1,0.1-0.1,0.2,0,0.4c0.2,0.4,0.4,0.6,0.7,0.7C240.4,385.3,241.7,384.6,243.1,383.3z"/>
			<path class="st8" d="M243.4,383.3c-1.4-0.2-3.8-1.1-4.2-2.2c-0.1-0.2-0.1-0.7,0.4-1.1c0.3-0.3,0.7-0.3,1.1-0.3
				c1.6,0.3,3.2,3,3.3,3.2c0,0.1,0,0.2,0,0.3c0,0.1-0.1,0.1-0.2,0.1C243.6,383.3,243.5,383.3,243.4,383.3z M240.5,380.2
				c-0.2,0-0.4,0-0.6,0.2c-0.3,0.2-0.3,0.4-0.2,0.5c0.3,0.7,2.3,1.6,3.6,1.8C242.7,381.8,241.5,380.4,240.5,380.2
				C240.6,380.2,240.5,380.2,240.5,380.2z"/>
			<path class="st8" d="M163.8,412.1c-1.1,0-2.1-0.2-2.7-0.7c-0.4-0.3-0.5-0.8-0.5-1.3c0-0.3,0.2-0.6,0.4-0.7
				c1.4-0.7,5.8,1.5,6.3,1.8c0.1,0.1,0.2,0.2,0.1,0.3c0,0.1-0.1,0.2-0.2,0.2C166.4,411.9,165.1,412.1,163.8,412.1z M161.9,409.8
				c-0.2,0-0.4,0-0.5,0.1c-0.1,0.1-0.2,0.1-0.2,0.3c0,0.4,0.1,0.6,0.3,0.8c0.7,0.6,2.5,0.7,5,0.3
				C164.9,410.6,162.9,409.8,161.9,409.8z"/>
			<path class="st8" d="M167.3,411.7c0,0-0.1,0-0.1,0c-1.3-0.6-3.9-3-3.7-4.2c0-0.3,0.3-0.7,1-0.7c0.5-0.1,1,0.1,1.5,0.5
				c1.4,1.2,1.6,4.1,1.7,4.3c0,0.1,0,0.2-0.1,0.2C167.4,411.7,167.3,411.7,167.3,411.7z M164.6,407.2c-0.1,0-0.1,0-0.2,0
				c-0.5,0-0.5,0.2-0.5,0.3c-0.1,0.8,1.7,2.6,3,3.5c-0.1-0.9-0.5-2.7-1.4-3.4C165.3,407.3,165,407.2,164.6,407.2z"/>
			<path class="st10" d="M184.8,55.9l-2-1.1C182.8,54.9,183.5,56.7,184.8,55.9z"/>
			<g>
				<path class="st8" d="M205.7,159.3l1.2,4c0.2,0.3-0.2,0.6-0.7,0.6h-46.3c-0.4,0-0.7-0.2-0.8-0.5l-0.4-4c0-0.3,0.3-0.5,0.8-0.5
					H205C205.3,158.9,205.6,159.1,205.7,159.3z"/>
				<path class="st12" d="M205.7,159.3l1.2,4c0.2,0.3-0.2,0.6-0.7,0.6h-46.3c-0.4,0-0.7-0.2-0.8-0.5l-0.4-4c0-0.3,0.3-0.5,0.8-0.5
					H205C205.3,158.9,205.6,159.1,205.7,159.3z"/>
			</g>
			<g>
				<g>
					<path class="st8" d="M199.5,164.4h1.2c0.2,0,0.4-0.1,0.4-0.3l-0.6-5.2c0-0.2-0.2-0.3-0.5-0.3h-1.2c-0.2,0-0.4,0.1-0.4,0.3
						l0.6,5.2C199,164.3,199.2,164.4,199.5,164.4z"/>
					<path class="st17" d="M199.5,164.4h1.2c0.2,0,0.4-0.1,0.4-0.3l-0.6-5.2c0-0.2-0.2-0.3-0.5-0.3h-1.2c-0.2,0-0.4,0.1-0.4,0.3
						l0.6,5.2C199,164.3,199.2,164.4,199.5,164.4z"/>
				</g>
				<g>
					<path class="st8" d="M163.3,164.4h1.2c0.2,0,0.4-0.1,0.4-0.3l-0.6-5.2c0-0.2-0.2-0.3-0.5-0.3h-1.2c-0.2,0-0.4,0.1-0.4,0.3
						l0.6,5.2C162.8,164.3,163,164.4,163.3,164.4z"/>
					<path class="st17" d="M163.3,164.4h1.2c0.2,0,0.4-0.1,0.4-0.3l-0.6-5.2c0-0.2-0.2-0.3-0.5-0.3h-1.2c-0.2,0-0.4,0.1-0.4,0.3
						l0.6,5.2C162.8,164.3,163,164.4,163.3,164.4z"/>
				</g>
				<g>
					<path class="st8" d="M181.3,164.4h1.2c0.2,0,0.4-0.1,0.4-0.3l-0.6-5.2c0-0.2-0.2-0.3-0.5-0.3h-1.2c-0.2,0-0.4,0.1-0.4,0.3
						l0.6,5.2C180.8,164.3,181,164.4,181.3,164.4z"/>
					<path class="st17" d="M181.3,164.4h1.2c0.2,0,0.4-0.1,0.4-0.3l-0.6-5.2c0-0.2-0.2-0.3-0.5-0.3h-1.2c-0.2,0-0.4,0.1-0.4,0.3
						l0.6,5.2C180.8,164.3,181,164.4,181.3,164.4z"/>
				</g>
			</g>
			<path class="st11" d="M178,170.9l-10.9-4.9l3.1,10.8c0,0,6.9,1.6,10-1.9L178,170.9z"/>
			<path class="st11" d="M218.3,108.1c0.5,3.8,0.9,7.6,1.4,11.4l1.2,11.4c0.4,3.8,0.7,7.6,1.1,11.4l0.5,5.7l0.1,1.4
				c0,0.1,0.1,0.7,0.1,1.1c0,0.4,0,0.9-0.1,1.3c-0.2,1.8-0.8,3.4-1.5,4.6c-1.5,2.6-3.4,4.2-5.2,5.6c-1.8,1.4-3.7,2.5-5.5,3.5
				c-3.7,1.9-7.4,3.4-11.2,4.7c-3.8,1.3-7.5,2.3-11.3,3.3c-3.8,0.9-7.6,1.7-11.5,2.3l-1.2-5.5c3.5-1.2,7.2-2.4,10.7-3.7
				c3.5-1.3,7-2.7,10.4-4.2c3.4-1.5,6.7-3.1,9.6-5c1.5-0.9,2.9-1.9,4-2.9c1.2-1,2.1-2.1,2.4-2.9c0.2-0.4,0.2-0.6,0.2-0.8
				c0,0,0-0.1,0-0.1c0-0.1,0,0,0-0.3l-0.2-1.4l-0.8-5.7c-0.5-3.8-1.1-7.6-1.5-11.4l-1.4-11.4c-0.4-3.8-0.9-7.6-1.3-11.4L218.3,108.1
				z"/>
			<path class="st8" d="M213,94.7c4.5,1.4,9.9,16.9,9.9,16.9l-15.8,16.3c0,0-8.1-16.7-6.2-22.5C203,99.3,207.9,93.1,213,94.7z"/>
			<polygon class="st11" points="158,168.3 161.1,177.2 170.2,176.9 167.1,166 			"/>
		</g>
	</g>
</g>
<g id="List_of_people">
	<g>
		<g>
			<g>
				<path class="st10" d="M310.7,136.3c2.9-21.1-11.8-38.3-32.9-38.3H316h116.2c21.1,0,35.9,17.1,32.9,38.3H310.7z"/>
				<path class="st18" d="M310.7,136.3c2.9-21.1-11.8-38.3-32.9-38.3H316h116.2c21.1,0,35.9,17.1,32.9,38.3H310.7z"/>
			</g>
			<path class="st8" d="M277.7,98h116.2h38.3c-21.1,0-40.7,17.1-43.6,38.3l-34.9,250.6c-2.9,21.1-22.5,38.3-43.6,38.3h-77.9
				c-21.1,0-35.9-17.1-32.9-38.3l34.9-250.6C237,115.1,256.6,98,277.7,98z"/>
			<g>
				<path class="st10" d="M277.1,386.8c-2.9,21.1,11.8,38.3,32.9,38.3h-38.3H155.6c-21.1,0-35.9-17.1-32.9-38.3H277.1z"/>
				<path class="st18" d="M277.1,386.8c-2.9,21.1,11.8,38.3,32.9,38.3h-38.3H155.6c-21.1,0-35.9-17.1-32.9-38.3H277.1z"/>
			</g>
		</g>
		<g>
			<path class="st17" d="M301.8,175.9h59.8c1.7,0,3.4-1.4,3.6-3.2l0,0c0.2-1.7-1-3.2-2.7-3.2h-59.8c-1.7,0-3.4,1.4-3.6,3.2l0,0
				C298.9,174.5,300.1,175.9,301.8,175.9z"/>
			<path class="st17" d="M300.2,187.7h44c1.7,0,3.4-1.4,3.6-3.2l0,0c0.2-1.7-1-3.2-2.7-3.2h-44c-1.7,0-3.4,1.4-3.6,3.2l0,0
				C297.2,186.3,298.4,187.7,300.2,187.7z"/>
		</g>
		<g>
			
				<ellipse transform="matrix(0.7304 -0.683 0.683 0.7304 -49.6358 227.4055)" class="st17" cx="263.2" cy="176.6" rx="20.5" ry="17.8"/>
			<path class="st4" d="M246.2,176.6c-0.4,2.9,0,5.7,0.9,8.1c2.1,5.3,7.3,8.9,13.7,8.9c6.5,0,12.6-3.6,16.2-8.9
				c1.7-2.4,2.8-5.2,3.2-8.1c1.3-9.4-5.3-17.1-14.7-17.1C256.2,159.5,247.5,167.1,246.2,176.6z"/>
			<path class="st19" d="M250.8,183.1c1.6,4.1,5.6,6.9,10.5,6.9s9.7-2.8,12.5-6.9c-3-2.2-6.8-3.5-11-3.5
				C258.6,179.6,254.4,180.9,250.8,183.1z"/>
			<path class="st19" d="M258,172.4c-0.4,3.2,1.8,5.8,5,5.8s6.2-2.6,6.6-5.8c0.4-3.2-1.8-5.8-5-5.8S258.4,169.2,258,172.4z"/>
		</g>
		<g>
			<path class="st17" d="M294.6,227.5h20.2c1.7,0,3.4-1.4,3.6-3.2l0,0c0.2-1.7-1-3.2-2.7-3.2h-20.2c-1.7,0-3.4,1.4-3.6,3.2l0,0
				C291.7,226,292.9,227.5,294.6,227.5z"/>
			<path class="st17" d="M327,227.5h28.8c1.7,0,3.4-1.4,3.6-3.2l0,0c0.2-1.7-1-3.2-2.7-3.2h-28.8c-1.7,0-3.4,1.4-3.6,3.2l0,0
				C324,226,325.3,227.5,327,227.5z"/>
			<path class="st17" d="M293,239.3h49.4c1.7,0,3.4-1.4,3.6-3.2l0,0c0.2-1.7-1-3.2-2.7-3.2h-49.4c-1.7,0-3.4,1.4-3.6,3.2l0,0
				C290,237.8,291.3,239.3,293,239.3z"/>
		</g>
		<g>
			
				<ellipse transform="matrix(0.7304 -0.683 0.683 0.7304 -86.7727 236.3922)" class="st17" cx="256.1" cy="228.1" rx="20.5" ry="17.8"/>
			<path class="st4" d="M239,228.1c-0.4,2.9,0,5.7,0.9,8.1c2.1,5.3,7.3,8.9,13.7,8.9c6.5,0,12.6-3.6,16.2-8.9
				c1.7-2.4,2.8-5.2,3.2-8.1c1.3-9.4-5.3-17.1-14.7-17.1C249,211,240.3,218.7,239,228.1z"/>
			<path class="st19" d="M243.6,234.6c1.6,4.1,5.6,6.9,10.5,6.9c5,0,9.7-2.8,12.5-6.9c-3-2.2-6.8-3.5-11-3.5
				C251.4,231.1,247.2,232.4,243.6,234.6z"/>
			<path class="st19" d="M250.8,223.9c-0.4,3.2,1.8,5.8,5,5.8c3.2,0,6.2-2.6,6.6-5.8c0.4-3.2-1.8-5.8-5-5.8S251.3,220.7,250.8,223.9
				z"/>
		</g>
		<g>
			<path class="st17" d="M287.5,279h35.1c1.7,0,3.4-1.4,3.6-3.2l0,0c0.2-1.7-1-3.2-2.7-3.2h-35.1c-1.7,0-3.4,1.4-3.6,3.2l0,0
				C284.5,277.6,285.7,279,287.5,279z"/>
			<path class="st17" d="M285.8,290.8h54.8c1.7,0,3.4-1.4,3.6-3.2l0,0c0.2-1.7-1-3.2-2.7-3.2h-54.8c-1.7,0-3.4,1.4-3.6,3.2l0,0
				C282.9,289.4,284.1,290.8,285.8,290.8z"/>
		</g>
		<g>
			<path class="st20" d="M225.8,341h83.9c2.4,0,4.7-2,5.1-4.4l0,0c0.3-2.4-1.4-4.4-3.8-4.4h-83.9c-2.4,0-4.7,2-5.1,4.4l0,0
				C221.7,339,223.4,341,225.8,341z"/>
			<path class="st20" d="M223.5,357.5h61.6c2.4,0,4.7-2,5.1-4.4l0,0c0.3-2.4-1.4-4.4-3.8-4.4h-61.6c-2.4,0-4.7,2-5.1,4.4l0,0
				C219.4,355.5,221.1,357.5,223.5,357.5z"/>
			<path class="st20" d="M255,138.6h100c1.3,0,2.4-1,2.6-2.3l0,0c0.2-1.3-0.7-2.3-2-2.3h-100c-1.3,0-2.4,1-2.6,2.3l0,0
				C252.8,137.5,253.7,138.6,255,138.6z"/>
		</g>
		<g>
			
				<ellipse transform="matrix(0.7304 -0.683 0.683 0.7304 -123.9094 245.3872)" class="st17" cx="248.9" cy="279.6" rx="20.5" ry="17.8"/>
			<path class="st4" d="M231.8,279.6c-0.4,2.9,0,5.7,0.9,8.1c2.1,5.3,7.3,8.9,13.7,8.9c6.5,0,12.6-3.6,16.2-8.9
				c1.7-2.4,2.8-5.2,3.2-8.1c1.3-9.4-5.3-17.1-14.7-17.1C241.8,262.6,233.1,270.2,231.8,279.6z"/>
			<path class="st19" d="M236.5,286.2c1.6,4.1,5.6,6.9,10.5,6.9c5,0,9.7-2.8,12.5-6.9c-3-2.2-6.8-3.5-11-3.5
				C244.2,282.7,240.1,284,236.5,286.2z"/>
			<path class="st19" d="M243.6,275.5c-0.4,3.2,1.8,5.8,5,5.8s6.2-2.6,6.6-5.8c0.4-3.2-1.8-5.8-5-5.8S244.1,272.2,243.6,275.5z"/>
		</g>
	</g>
</g>
</svg>
